<svg width="25" height="34" viewBox="0 0 25 34" fill="none" xmlns="http://www.w3.org/2000/svg">
<path d="M12.25 21C10.7917 21 9.55208 20.4896 8.53125 19.4688C7.51042 18.4479 7 17.2083 7 15.75V5.25C7 3.79167 7.51042 2.55208 8.53125 1.53125C9.55208 0.510417 10.7917 0 12.25 0C13.7083 0 14.9479 0.510417 15.9687 1.53125C16.9896 2.55208 17.5 3.79167 17.5 5.25V15.75C17.5 17.2083 16.9896 18.4479 15.9687 19.4688C14.9479 20.4896 13.7083 21 12.25 21ZM10.5 33.25V27.8688C7.46667 27.4604 4.95833 26.1042 2.975 23.8C0.991667 21.4958 0 18.8125 0 15.75H3.5C3.5 18.1708 4.35312 20.2344 6.05937 21.9406C7.76562 23.6469 9.82917 24.5 12.25 24.5C14.6708 24.5 16.7344 23.6469 18.4406 21.9406C20.1469 20.2344 21 18.1708 21 15.75H24.5C24.5 18.8125 23.5083 21.4958 21.525 23.8C19.5417 26.1042 17.0333 27.4604 14 27.8688V33.25H10.5ZM12.25 17.5C12.7458 17.5 13.1615 17.3323 13.4969 16.9969C13.8323 16.6615 14 16.2458 14 15.75V5.25C14 4.75417 13.8323 4.33854 13.4969 4.00313C13.1615 3.66771 12.7458 3.5 12.25 3.5C11.7542 3.5 11.3385 3.66771 11.0031 4.00313C10.6677 4.33854 10.5 4.75417 10.5 5.25V15.75C10.5 16.2458 10.6677 16.6615 11.0031 16.9969C11.3385 17.3323 11.7542 17.5 12.25 17.5Z" fill="black"/>
</svg>
