<svg width="64" height="64" viewBox="0 0 64 64" fill="none" xmlns="http://www.w3.org/2000/svg">
<mask id="mask0_6_7" style="mask-type:alpha" maskUnits="userSpaceOnUse" x="0" y="0" width="64" height="64">
<rect width="64" height="64" fill="#D9D9D9"/>
</mask>
<g mask="url(#mask0_6_7)">
<path d="M35.1333 21.3331L20.2 10.1997C19.5777 9.75528 19.2222 9.17751 19.1333 8.4664C19.0444 7.75528 19.2222 7.08862 19.6666 6.4664C20.1111 5.84417 20.6888 5.47751 21.4 5.3664C22.1111 5.25528 22.7777 5.42195 23.4 5.8664L38.3333 17.0664L35.1333 21.3331ZM24.9333 17.0664L22.5333 19.5331C22.3111 19.7553 22.1 19.9886 21.9 20.2331C21.7 20.4775 21.5111 20.7331 21.3333 20.9997L17.5333 18.1997C16.9111 17.7553 16.5555 17.1775 16.4666 16.4664C16.3777 15.7553 16.5555 15.0886 17 14.4664C17.4444 13.8442 18.0222 13.4886 18.7333 13.3997C19.4444 13.3108 20.1111 13.4886 20.7333 13.9331L24.9333 17.0664ZM49.5333 22.0664L29.2666 6.93306C28.6444 6.48862 28.2777 5.91084 28.1666 5.19973C28.0555 4.48862 28.2222 3.82195 28.6666 3.19973C29.1111 2.57751 29.6888 2.22195 30.4 2.13306C31.1111 2.04417 31.7777 2.22195 32.4 2.6664L45.4666 12.3997L46.0666 7.79973C46.2 6.73306 46.6222 5.82195 47.3333 5.0664C48.0444 4.31084 48.9111 3.84417 49.9333 3.6664L52.6 3.2664L58.8666 24.3331C59.2222 25.5331 59.2888 26.7553 59.0666 27.9997C58.8444 29.2442 58.3555 30.3775 57.6 31.3997L51.9333 38.9331C51.8444 37.8664 51.6111 36.8331 51.2333 35.8331C50.8555 34.8331 50.3555 33.8886 49.7333 32.9997L53.3333 28.1997C53.6 27.8442 53.7555 27.4664 53.8 27.0664C53.8444 26.6664 53.8222 26.2664 53.7333 25.8664L50.5333 14.9997L49.5333 22.0664ZM18 28.4664L17.0666 27.7997C16.4444 27.3553 16.0777 26.7775 15.9666 26.0664C15.8555 25.3553 16.0222 24.6886 16.4666 24.0664C16.9111 23.4442 17.4888 23.0886 18.2 22.9997C18.9111 22.9108 19.5777 23.0886 20.2 23.5331L20.2666 23.5997C20.0444 24.3997 19.9666 25.2108 20.0333 26.0331C20.1 26.8553 20.2666 27.6664 20.5333 28.4664H18ZM5.33329 45.3331C4.57774 45.3331 3.9444 45.0775 3.43329 44.5664C2.92218 44.0553 2.66663 43.4219 2.66663 42.6664C2.66663 41.9108 2.92218 41.2775 3.43329 40.7664C3.9444 40.2553 4.57774 39.9997 5.33329 39.9997H24V45.3331H5.33329ZM7.99996 53.3331C7.2444 53.3331 6.61107 53.0775 6.09996 52.5664C5.58885 52.0553 5.33329 51.4219 5.33329 50.6664C5.33329 49.9108 5.58885 49.2775 6.09996 48.7664C6.61107 48.2553 7.2444 47.9997 7.99996 47.9997H24V53.3331H7.99996ZM13.3333 61.3331C12.5777 61.3331 11.9444 61.0775 11.4333 60.5664C10.9222 60.0553 10.6666 59.4219 10.6666 58.6664C10.6666 57.9108 10.9222 57.2775 11.4333 56.7664C11.9444 56.2553 12.5777 55.9997 13.3333 55.9997H40C40.7555 55.9997 41.3888 55.7442 41.9 55.2331C42.4111 54.7219 42.6666 54.0886 42.6666 53.3331V39.9997C42.6666 39.5553 42.5777 39.1553 42.4 38.7997C42.2222 38.4442 41.9555 38.1331 41.6 37.8664L32.5333 31.0664L36 37.3331H10.6666C9.91107 37.3331 9.27774 37.0775 8.76663 36.5664C8.25551 36.0553 7.99996 35.422 7.99996 34.6664C7.99996 33.9108 8.25551 33.2775 8.76663 32.7664C9.27774 32.2553 9.91107 31.9997 10.6666 31.9997H26.9333L24.6666 27.9997C24.1333 27.0664 23.9222 26.0775 24.0333 25.0331C24.1444 23.9886 24.5777 23.0886 25.3333 22.3331L27.2 20.4664L44.8 33.5997C45.8222 34.3553 46.6111 35.2886 47.1666 36.3997C47.7222 37.5108 48 38.7108 48 39.9997V53.3331C48 55.5553 47.2222 57.4442 45.6666 58.9997C44.1111 60.5553 42.2222 61.3331 40 61.3331H13.3333Z" fill="white"/>
</g>
</svg>
